<mxfile host="app.diagrams.net" modified="2023-05-29T06:55:33.903Z" agent="Mozilla/5.0 (Macintosh; Intel Mac OS X 10_15_7) AppleWebKit/537.36 (KHTML, like Gecko) Chrome/113.0.0.0 Safari/537.36" etag="BNgO-xJBvbcpW1p_Hjlr" version="21.3.3" type="github">
  <diagram name="第 1 页" id="IT4s2EiO6ka8GxfyGY2X">
    <mxGraphModel dx="984" dy="610" grid="1" gridSize="10" guides="1" tooltips="1" connect="1" arrows="1" fold="1" page="1" pageScale="1" pageWidth="827" pageHeight="1169" math="0" shadow="0">
      <root>
        <mxCell id="0" />
        <mxCell id="1" parent="0" />
        <mxCell id="2stltuO-EHjp4fbqWveh-1" value="用户产生日志" style="rounded=1;whiteSpace=wrap;html=1;" parent="1" vertex="1">
          <mxGeometry x="280" y="85" width="100" height="50" as="geometry" />
        </mxCell>
        <mxCell id="2stltuO-EHjp4fbqWveh-2" value="info() 数据上报" style="rounded=1;whiteSpace=wrap;html=1;" parent="1" vertex="1">
          <mxGeometry x="280" y="175" width="100" height="50" as="geometry" />
        </mxCell>
        <mxCell id="2stltuO-EHjp4fbqWveh-3" value="是否是白&lt;br&gt;名单用户" style="rhombus;whiteSpace=wrap;html=1;" parent="1" vertex="1">
          <mxGeometry x="285" y="260" width="90" height="80" as="geometry" />
        </mxCell>
        <mxCell id="2stltuO-EHjp4fbqWveh-7" value="清除 IndexDB" style="rounded=1;whiteSpace=wrap;html=1;" parent="1" vertex="1">
          <mxGeometry x="500" y="599.5" width="100" height="50" as="geometry" />
        </mxCell>
        <mxCell id="2stltuO-EHjp4fbqWveh-30" value="" style="edgeStyle=orthogonalEdgeStyle;rounded=0;orthogonalLoop=1;jettySize=auto;html=1;" parent="1" source="2stltuO-EHjp4fbqWveh-8" target="Q-PgKzAsWuu9IqyVDojN-1" edge="1">
          <mxGeometry relative="1" as="geometry">
            <mxPoint x="550" y="435" as="targetPoint" />
          </mxGeometry>
        </mxCell>
        <mxCell id="2stltuO-EHjp4fbqWveh-8" value="存入 indexDB" style="rounded=1;whiteSpace=wrap;html=1;" parent="1" vertex="1">
          <mxGeometry x="500" y="340" width="100" height="50" as="geometry" />
        </mxCell>
        <mxCell id="2stltuO-EHjp4fbqWveh-11" value="" style="endArrow=classic;html=1;rounded=0;" parent="1" source="2stltuO-EHjp4fbqWveh-1" target="2stltuO-EHjp4fbqWveh-2" edge="1">
          <mxGeometry width="50" height="50" relative="1" as="geometry">
            <mxPoint x="310" y="390" as="sourcePoint" />
            <mxPoint x="360" y="340" as="targetPoint" />
          </mxGeometry>
        </mxCell>
        <mxCell id="2stltuO-EHjp4fbqWveh-12" value="" style="endArrow=classic;html=1;rounded=0;" parent="1" source="2stltuO-EHjp4fbqWveh-2" target="2stltuO-EHjp4fbqWveh-3" edge="1">
          <mxGeometry width="50" height="50" relative="1" as="geometry">
            <mxPoint x="510" y="330" as="sourcePoint" />
            <mxPoint x="560" y="280" as="targetPoint" />
          </mxGeometry>
        </mxCell>
        <mxCell id="2stltuO-EHjp4fbqWveh-13" value="" style="edgeStyle=elbowEdgeStyle;elbow=horizontal;endArrow=classic;html=1;curved=0;rounded=0;endSize=8;startSize=8;exitX=1;exitY=0.5;exitDx=0;exitDy=0;entryX=0;entryY=0.5;entryDx=0;entryDy=0;" parent="1" source="2stltuO-EHjp4fbqWveh-3" target="2stltuO-EHjp4fbqWveh-35" edge="1">
          <mxGeometry width="50" height="50" relative="1" as="geometry">
            <mxPoint x="510" y="330" as="sourcePoint" />
            <mxPoint x="560" y="280" as="targetPoint" />
            <Array as="points">
              <mxPoint x="460" y="260" />
            </Array>
          </mxGeometry>
        </mxCell>
        <mxCell id="2stltuO-EHjp4fbqWveh-17" value="日志压缩" style="rounded=1;whiteSpace=wrap;html=1;" parent="1" vertex="1">
          <mxGeometry x="280" y="695" width="100" height="50" as="geometry" />
        </mxCell>
        <mxCell id="2stltuO-EHjp4fbqWveh-20" value="" style="endArrow=classic;html=1;rounded=0;entryX=0.5;entryY=0;entryDx=0;entryDy=0;" parent="1" source="2stltuO-EHjp4fbqWveh-17" target="2stltuO-EHjp4fbqWveh-39" edge="1">
          <mxGeometry width="50" height="50" relative="1" as="geometry">
            <mxPoint x="510" y="530" as="sourcePoint" />
            <mxPoint x="560" y="480" as="targetPoint" />
          </mxGeometry>
        </mxCell>
        <mxCell id="2stltuO-EHjp4fbqWveh-21" value="" style="html=1;verticalAlign=bottom;endArrow=block;rounded=0;" parent="1" source="2stltuO-EHjp4fbqWveh-3" target="2stltuO-EHjp4fbqWveh-17" edge="1">
          <mxGeometry x="-0.0028" width="80" relative="1" as="geometry">
            <mxPoint x="290" y="370" as="sourcePoint" />
            <mxPoint x="340" y="510" as="targetPoint" />
            <mxPoint as="offset" />
          </mxGeometry>
        </mxCell>
        <mxCell id="2stltuO-EHjp4fbqWveh-33" value="" style="edgeStyle=orthogonalEdgeStyle;rounded=0;orthogonalLoop=1;jettySize=auto;html=1;exitX=0.5;exitY=1;exitDx=0;exitDy=0;" parent="1" source="Q-PgKzAsWuu9IqyVDojN-1" target="2stltuO-EHjp4fbqWveh-31" edge="1">
          <mxGeometry relative="1" as="geometry">
            <mxPoint x="550" y="485" as="sourcePoint" />
          </mxGeometry>
        </mxCell>
        <mxCell id="2stltuO-EHjp4fbqWveh-34" value="" style="edgeStyle=orthogonalEdgeStyle;rounded=0;orthogonalLoop=1;jettySize=auto;html=1;" parent="1" source="2stltuO-EHjp4fbqWveh-31" target="2stltuO-EHjp4fbqWveh-7" edge="1">
          <mxGeometry relative="1" as="geometry" />
        </mxCell>
        <mxCell id="2stltuO-EHjp4fbqWveh-31" value="日志上传" style="rounded=1;whiteSpace=wrap;html=1;" parent="1" vertex="1">
          <mxGeometry x="500" y="530" width="100" height="50" as="geometry" />
        </mxCell>
        <mxCell id="2stltuO-EHjp4fbqWveh-36" value="" style="edgeStyle=orthogonalEdgeStyle;rounded=0;orthogonalLoop=1;jettySize=auto;html=1;" parent="1" source="2stltuO-EHjp4fbqWveh-35" target="2stltuO-EHjp4fbqWveh-8" edge="1">
          <mxGeometry relative="1" as="geometry" />
        </mxCell>
        <mxCell id="2stltuO-EHjp4fbqWveh-35" value="对 indexDB 检查" style="rounded=1;whiteSpace=wrap;html=1;" parent="1" vertex="1">
          <mxGeometry x="500" y="275" width="100" height="50" as="geometry" />
        </mxCell>
        <mxCell id="2stltuO-EHjp4fbqWveh-38" value="" style="edgeStyle=segmentEdgeStyle;endArrow=classic;html=1;curved=0;rounded=0;endSize=8;startSize=8;exitX=0.5;exitY=1;exitDx=0;exitDy=0;" parent="1" source="2stltuO-EHjp4fbqWveh-7" edge="1">
          <mxGeometry width="50" height="50" relative="1" as="geometry">
            <mxPoint x="390" y="520" as="sourcePoint" />
            <mxPoint x="330" y="670" as="targetPoint" />
            <Array as="points">
              <mxPoint x="550" y="670" />
              <mxPoint x="330" y="670" />
            </Array>
          </mxGeometry>
        </mxCell>
        <mxCell id="2stltuO-EHjp4fbqWveh-40" value="" style="edgeStyle=orthogonalEdgeStyle;rounded=0;orthogonalLoop=1;jettySize=auto;html=1;" parent="1" source="2stltuO-EHjp4fbqWveh-39" edge="1">
          <mxGeometry relative="1" as="geometry">
            <mxPoint x="330" y="860" as="targetPoint" />
          </mxGeometry>
        </mxCell>
        <mxCell id="2stltuO-EHjp4fbqWveh-39" value="日志上传" style="rounded=1;whiteSpace=wrap;html=1;" parent="1" vertex="1">
          <mxGeometry x="280" y="775" width="100" height="50" as="geometry" />
        </mxCell>
        <mxCell id="2stltuO-EHjp4fbqWveh-45" value="" style="edgeStyle=orthogonalEdgeStyle;rounded=0;orthogonalLoop=1;jettySize=auto;html=1;" parent="1" source="2stltuO-EHjp4fbqWveh-41" target="2stltuO-EHjp4fbqWveh-1" edge="1">
          <mxGeometry relative="1" as="geometry" />
        </mxCell>
        <mxCell id="2stltuO-EHjp4fbqWveh-41" value="" style="ellipse;shape=startState;fillColor=#000000;strokeColor=#000000;" parent="1" vertex="1">
          <mxGeometry x="315" y="20" width="30" height="30" as="geometry" />
        </mxCell>
        <mxCell id="2stltuO-EHjp4fbqWveh-44" value="开始" style="text;html=1;strokeColor=none;fillColor=none;align=center;verticalAlign=middle;whiteSpace=wrap;rounded=0;" parent="1" vertex="1">
          <mxGeometry x="354" y="20" width="60" height="30" as="geometry" />
        </mxCell>
        <mxCell id="2stltuO-EHjp4fbqWveh-46" value="" style="ellipse;shape=endState;fillColor=#000000;strokeColor=#330000;" parent="1" vertex="1">
          <mxGeometry x="315" y="860" width="30" height="30" as="geometry" />
        </mxCell>
        <mxCell id="2stltuO-EHjp4fbqWveh-47" value="结束" style="text;html=1;strokeColor=none;fillColor=none;align=center;verticalAlign=middle;whiteSpace=wrap;rounded=0;" parent="1" vertex="1">
          <mxGeometry x="340" y="860" width="60" height="30" as="geometry" />
        </mxCell>
        <mxCell id="Q-PgKzAsWuu9IqyVDojN-1" value="是否提取&lt;br&gt;离线日志" style="rhombus;whiteSpace=wrap;html=1;" parent="1" vertex="1">
          <mxGeometry x="510" y="410" width="80" height="80" as="geometry" />
        </mxCell>
        <mxCell id="Q-PgKzAsWuu9IqyVDojN-7" value="" style="endArrow=classic;html=1;rounded=0;exitX=1;exitY=0.5;exitDx=0;exitDy=0;" parent="1" source="Q-PgKzAsWuu9IqyVDojN-1" edge="1">
          <mxGeometry width="50" height="50" relative="1" as="geometry">
            <mxPoint x="220" y="630" as="sourcePoint" />
            <mxPoint x="330" y="840" as="targetPoint" />
            <Array as="points">
              <mxPoint x="650" y="450" />
              <mxPoint x="650" y="840" />
              <mxPoint x="330" y="840" />
            </Array>
          </mxGeometry>
        </mxCell>
        <mxCell id="i-Zo4dr6lKSxkBWPfQ35-1" value="否" style="text;html=1;strokeColor=none;fillColor=none;align=center;verticalAlign=middle;whiteSpace=wrap;rounded=0;" vertex="1" parent="1">
          <mxGeometry x="375" y="275" width="60" height="30" as="geometry" />
        </mxCell>
        <mxCell id="i-Zo4dr6lKSxkBWPfQ35-2" value="是" style="text;html=1;strokeColor=none;fillColor=none;align=center;verticalAlign=middle;whiteSpace=wrap;rounded=0;" vertex="1" parent="1">
          <mxGeometry x="311" y="350" width="60" height="30" as="geometry" />
        </mxCell>
        <mxCell id="i-Zo4dr6lKSxkBWPfQ35-3" value="否" style="text;html=1;strokeColor=none;fillColor=none;align=center;verticalAlign=middle;whiteSpace=wrap;rounded=0;" vertex="1" parent="1">
          <mxGeometry x="590" y="426" width="60" height="30" as="geometry" />
        </mxCell>
        <mxCell id="i-Zo4dr6lKSxkBWPfQ35-4" value="是" style="text;html=1;strokeColor=none;fillColor=none;align=center;verticalAlign=middle;whiteSpace=wrap;rounded=0;" vertex="1" parent="1">
          <mxGeometry x="530" y="490" width="60" height="30" as="geometry" />
        </mxCell>
      </root>
    </mxGraphModel>
  </diagram>
</mxfile>
